/* XPM */
static char *result[] = {
/* columns rows colors chars-per-pixel */
"32 32 135 2 ",
"   c #100C0F",
".  c #0E100F",
"X  c #11110F",
"o  c #100C10",
"O  c #141214",
"+  c #191417",
"@  c #161119",
"#  c #1B171C",
"$  c #17191A",
"%  c #1D1A1D",
"&  c #221E1D",
"*  c #231D25",
"=  c #251D2A",
"-  c #281F2C",
";  c #172024",
":  c #1F2426",
">  c #242225",
",  c #292425",
"<  c #2C2826",
"1  c #25232B",
"2  c #2A242C",
"3  c #272929",
"4  c #2E2D2D",
"5  c #322E2D",
"6  c #34322E",
"7  c #242730",
"8  c #2C2432",
"9  c #232F36",
"0  c #2C2933",
"q  c #312735",
"w  c #312935",
"e  c #312739",
"r  c #352A3B",
"t  c #392E3E",
"y  c #2C3439",
"u  c #323232",
"i  c #3A3633",
"p  c #3F3937",
"a  c #37313E",
"s  c #383738",
"d  c #3E3E3E",
"f  c #403A35",
"g  c #423E3A",
"h  c #47413D",
"j  c #4B433D",
"k  c #362C40",
"l  c #3A2E42",
"z  c #3D3145",
"x  c #3E3149",
"c  c #413F41",
"v  c #43354C",
"b  c #45384D",
"n  c #463652",
"m  c #473851",
"M  c #493A55",
"N  c #4D3C5C",
"B  c #513C5F",
"V  c #4F3D61",
"C  c #503E60",
"Z  c #414141",
"A  c #4B4642",
"S  c #4E4942",
"D  c #4E4E4E",
"F  c #534D46",
"G  c #544F4A",
"H  c #55514E",
"J  c #5A534D",
"K  c #4F405B",
"L  c #55425F",
"P  c #515150",
"I  c #5C5750",
"U  c #5F5A52",
"Y  c #5E5E5E",
"T  c #625A51",
"R  c #665F5B",
"E  c #66605A",
"W  c #6B645C",
"Q  c #6E685F",
"!  c #554364",
"~  c #584867",
"^  c #56456A",
"/  c #59466A",
"(  c #5D496D",
")  c #5E4A71",
"_  c #604B6F",
"`  c #624C74",
"'  c #694F75",
"]  c #634D78",
"[  c #6B537C",
"{  c #606060",
"}  c #736C62",
"|  c #777167",
" . c #77726A",
".. c #7D756C",
"X. c #867E72",
"o. c #887E72",
"O. c #898177",
"+. c #91857A",
"@. c #938C7F",
"#. c #6F5981",
"$. c #755B85",
"%. c #775B89",
"&. c #7A5B8C",
"*. c #969081",
"=. c #9F9687",
"-. c #9F9589",
";. c #A3978A",
":. c #A49B8C",
">. c #A89D8E",
",. c #A79F90",
"<. c #AFA595",
"1. c #B7AC9D",
"2. c #BAAF9D",
"3. c #BBB1A3",
"4. c #C1B5A6",
"5. c #C2B7A8",
"6. c #C5BAAA",
"7. c #C9BDAC",
"8. c #CCC0AE",
"9. c #CFC2B1",
"0. c #D2C4B4",
"q. c #D6C8B6",
"w. c #D9CAB7",
"e. c #DACCBC",
"r. c #DCD1BD",
"t. c #E2D2BD",
"y. c #DDD1C0",
"u. c #E4D6C2",
"i. c #E5D8C3",
"p. c #E9DAC5",
"a. c #EDDECB",
"s. c #EFE0CA",
"d. c #F4E3CD",
"f. c #F8E5CF",
"g. c #F4E4D0",
/* pixels */
"4 u 4 u 4 u 4 4 4 u 4 u d 9 w a r 0 h d Z Z Z Z Z z d Z Z Z d d ",
"u u u u u u u s u u u l L [ %.&.&.$.' m 2 Z Z Z Z A Z Z d d Z Z ",
"Y Y Y Y Y Y Y Y P D M ` ] [ %.%.%.%.#.] ! e Y Y Y Y P D u u d d ",
"{ { Y Y Y Y Y Y H B / ` _ [ %.&.%.[ _ L M M l { { Y P P s u d d ",
"{ { { { P P P P M / r ~ ` ) ] [ ` ) K z m w M z P P P P D D u u ",
"{ { { { P P P v N ) l q ~ ] ) ) ` ( t v ] v r N k P P P P D u u ",
"P P P P P P l x M C ) r - M ) ` ` m 2 ~ ] ( ! N K 9 P P P D u u ",
"P P D D P w v r n ! ` ` M x ! ` M , m ] ` ` ` / C n : D D D u u ",
"P D Z d Z v k r N / ( ` ] ) K l , m ] ` _ ) ` ( C C e Z Z Z d d ",
"D D Z d r v q v N l 8 = z N l l N ( ! k 8 8 M / V V n 1 c Z c Z ",
"u u u u k l v N N v > , u 1 k x x e , 6 , 8 M B N N N 8 Z Z Z d ",
"4 u u u l N M N v # & X.6.*.J p g R >.3.W # = M N M N e Z Z Z Z ",
"D D D D x M M l * g < % ..p.u.9.0.a.q.J + i 6 2 n N B r { { Y Y ",
"P P P P x N v * A h s 8 + Q r.a.a.7.F @ 4 i F 6 8 M ! r { { Y { ",
"P P P P z ! 7 s F g P I D > @.d.t.} > G I D h D 4 x ! 8 { Y P P ",
"D P D P k m @ I J A P P g g r.f.f.2.w Z P G Z } i 8 M 2 { Y P P ",
"P P P P Z l = g O.p s 6 F 6.u.+.=.p.>.p i 4 U  .< e x P P P P P ",
"P P D D Z w n 2 W R  .1.i.u.T < 6 ..g.w.-.W } A e n 7 P P P D P ",
"P D Z Z Z c w v 8 = G y.d.7.< u 0 S y.p.;.d * k v 1 P P P D P P ",
"D D Z Z d Z Z Z l b % F u.u.6.4.6.8.s.w.F = b w d Z D P D D D D ",
"u u d Z Z Z Z Z Z 1 + h e.} a.7.,.t.X.2.j @ w u d d Z d u u u u ",
"u s Z Z Z Z Z Z Z 1 $ $ h 5 @...F @.i u & $ u u Z Z Z d u u w u ",
"Y Y { Y Y Y Y Y Y a 2 & + X     O X + % % 2 Y Y D D D D D D Z d ",
"Y { { { { { Y { < z * 8 r 6 X.W j I < 8 2 w 0 { P P P P D D Z d ",
"P P Y { { Y P P p 5 % z 8 Q 5.E J ,.R k v ; p u P P P P D D Z Z ",
"P P Y Y Y Y P I 4.=.3 m * g 5   o 5 f e t h 6.@.P P P P D D Z Z ",
"P P P P P P P s <.:.4 ! , } X.} o.,.J 1 r S <.Y D P P D Z Z Z Z ",
"P P P D P D P P < & 0 ^ * | E ..o.X.I * n 8 9 P P P D D Z Z d d ",
"P P P D Z Z Z Z D D 1 v % . Z Z w 4 . 1 z P P P D D Z d Z d u u ",
"D H D D Z Z d Z D D D % u J 9 p 5 y G 3 3 D D D D D Z d Z d u u ",
"u u y u d d u 4 u s d 3 1.O.; u 4 u ;.+.3 Z Z d u u u u u u u 4 ",
"u 4 u 4 Z Z u 4 u u d Z u : u y 4 4 > i d d d d u u u 4 u 4 u u "
};
