/* XPM */
static char *result[] = {
/* columns rows colors chars-per-pixel */
"32 32 115 2 ",
"   c #080506",
".  c #171517",
"X  c #1B1617",
"o  c #141218",
"O  c #1A161A",
"+  c #171918",
"@  c #1C1A1B",
"#  c #221D1D",
"$  c #1E1922",
"%  c #231D25",
"&  c #251E28",
"*  c #1E2027",
"=  c #242223",
"-  c #24242B",
";  c #2A232D",
":  c #24292E",
">  c #2F2E2E",
",  c #312C27",
"<  c #312C2B",
"1  c #34312C",
"2  c #2D2532",
"3  c #222A33",
"4  c #2C2A34",
"5  c #322736",
"6  c #32263A",
"7  c #352B3C",
"8  c #382D3E",
"9  c #2F3233",
"0  c #2C3238",
"q  c #323232",
"w  c #3A3633",
"e  c #3D3833",
"r  c #333738",
"t  c #353A3C",
"y  c #3E3E3E",
"u  c #45413D",
"i  c #352B40",
"p  c #3B2E43",
"a  c #3D3146",
"s  c #353C40",
"d  c #3E3F40",
"f  c #3E3349",
"g  c #403346",
"h  c #42354C",
"j  c #45384C",
"k  c #443551",
"l  c #483755",
"z  c #473954",
"x  c #493955",
"c  c #4C3B5B",
"v  c #513D5F",
"b  c #4F3D60",
"n  c #513E61",
"m  c #3F4041",
"M  c #3F464A",
"N  c #374B56",
"B  c #414141",
"V  c #424648",
"C  c #4E4E4E",
"Z  c #524E48",
"A  c #53524D",
"S  c #5A544B",
"D  c #504F50",
"F  c #51405C",
"G  c #4F5254",
"H  c #515151",
"J  c #54585A",
"K  c #5D5D5D",
"L  c #635D55",
"P  c #666158",
"I  c #6C655E",
"U  c #70695F",
"Y  c #544264",
"T  c #594566",
"R  c #574568",
"E  c #5B466A",
"W  c #5D4A6E",
"Q  c #5F4A71",
"!  c #614A6A",
"~  c #634C74",
"^  c #654F7A",
"/  c #684F7A",
"(  c #665077",
")  c #67517B",
"_  c #6A537B",
"`  c #5F6060",
"'  c #606060",
"]  c #6F6A61",
"[  c #776F65",
"{  c #757065",
"}  c #857B73",
"|  c #888276",
" . c #8E877B",
".. c #95897D",
"X. c #958D83",
"o. c #9C9184",
"O. c #9E9288",
"+. c #A4998C",
"@. c #A89A8C",
"#. c #B5A99A",
"$. c #C1B7A6",
"%. c #CABCAC",
"&. c #CBC1B0",
"*. c #D3C6B2",
"=. c #D4C8B8",
"-. c #DACCBB",
";. c #DCD1BE",
":. c #E1D3BF",
">. c #E3D5C2",
",. c #E5D9C2",
"<. c #EEDEC9",
"1. c #EFE0CC",
"2. c #F8E8CF",
"3. c #F7E8D3",
"4. c #F8E8D2",
/* pixels */
"> 9 4 > 9 1 9 > < 9 q s y m y : * 3 B B m M B B B m g u m m m m ",
"q q q q q q q r q t q q 4 j ! ( _ _ ! x 4 3 B B B V B d m m m u ",
"K K K K K K K K A C 4 v ) _ / ^ ) ) ^ ~ Q F 7 ` K ` D C q 1 y m ",
"P ` ` ` K ` K K 3 j ^ ~ Q W Q Q W Q ! W Q ~ c f : L J C r 9 y m ",
"' ' ' ` H G N : Y / ~ Q Q Q Q W ~ Q Q Q Q W b c g - A G C C q q ",
"' L ` ` H C - T / E W Q Q W ~ ~ Q Q Q Q Q Y l l c p : H A G q > ",
"G J H H D C h R i 5 c n b n R Q Q Q Q W E c c p l l 2 A J C q 9 ",
"D D C C C : Y p 7 l n b b c c c Y Y R Y c c l 6 x c f : G C r 1 ",
"D C g u m 4 c x F x i i a l c c c c c l c c x 5 8 c c ; B m m m ",
"C C m m g p c x 8 % 1 # O 2 p c c c l z c c g ; 7 5 n l - u m m ",
"q q 9 9 q h x % u o.$. .< 2 j l c c l l c z 2 & h & k c l ; u m ",
"q q q 1 q 7 = P } L { o.+.> 6 v c c x c c 7 & 2 l @ % 2 2 3 B B ",
"C C C C V # U I @ A | @.%.} % h c c c b k & 2 7 c & K ` K K K K ",
"G A A G A C S # = y L ;.<.%.I % h l b h & r ; k l - K ' K ' K ' ",
"C G A A H C O y A A w X.4.>.#.q 6 i 7 - p a ; l f : ` ` ' K H H ",
"H H G C D C y q A H q o.2.>.O.[ % c i k c 2 h c h K ` ` P ` H H ",
"H H C G u m B S w > Z ;.1.:.L X.> h c v a 7 b x ; H H H H H H H ",
"H H C C m m C *.*.#.-.1.*.$.w U # p c l a c h - C G H H H H Z G ",
"A C V u m B ] 3.<.<.1.*.U 1 X ; 2 x n x a 4 : q V B D D H H G D ",
"G C B m u V  .1.:.;.,.I   X 2 f f 8 ; 2 y y > 9 y B D D C C C C ",
"1 r y u j B I ..=...&.e o % $ . O ; % g q 1 > > y y m d q q q q ",
"r q B m B B m > Z w u = 7 7 % f 2 5 j = r r q r m B B m q q q q ",
"K K ` ` K K ` ` L H ; & = % 2 Q 8 X % 0 K K K K D C D C C C B d ",
"` ` ' ' ` ` ` ` ' J + 8 v 7 8 T 6 % 5 : K P K K H H Z G D C B y ",
"C H K ' ' ` H H G C $ R ~ 7 5 x 7 % h : ` ` H D G Z D H D C B B ",
"H H K K K K H H D C 4 E F 8 @ > < # h ; - K H A H G H H C C B B ",
"H G A H H H H H C C 5 E a : [ %.$.L 2 f + H C G D Z G C B B B m ",
"H H D C H C H C A C 8 ^ E 7 S ;.$.B h z O G C G H G D C B B m y ",
"H H G A B B B B C C ; l x j % = # $ 6 = = C Z D D C m u B d q 9 ",
"C C C C B B y B C C C @ u = + , # < V * > D D D C C B y u y q q ",
"q q q q d y q q q q y e I , o.+.> 9 q q u m B y q r 9 q q q q > ",
"q q 4 q m y q q q q m B m : 9 : > 1 9 1 y y y y 9 > < 9 > 9 q q "
};
