/* XPM */
static char *result[] = {
/* columns rows colors chars-per-pixel */
"32 32 199 2 ",
"   c #380C11",
".  c #2F2F2F",
"X  c #323232",
"o  c #3E3E3E",
"O  c #460E18",
"+  c #590617",
"@  c #6C0D1A",
"#  c #661A1B",
"$  c #781716",
"%  c #432718",
"&  c #5A2A16",
"*  c #55311C",
"=  c #652D16",
"-  c #7E2C1D",
";  c #67371A",
":  c #773717",
">  c #753C1B",
",  c #660622",
"<  c #5B3726",
"1  c #712F25",
"2  c #753C25",
"3  c #7B471D",
"4  c #5C453A",
"5  c #6C422C",
"6  c #784C28",
"7  c #634333",
"8  c #76523D",
"9  c #414141",
"0  c #4E4E4E",
"q  c #515151",
"w  c #5D5D5D",
"e  c #796557",
"r  c #626262",
"t  c #6B6B6B",
"y  c #7E6A61",
"u  c #6F7070",
"i  c #747474",
"p  c #7B7C7C",
"a  c #92111A",
"s  c #9B2B1E",
"d  c #833A17",
"f  c #8B3C13",
"g  c #B2331A",
"h  c #8E1427",
"j  c #8A3B22",
"k  c #903224",
"l  c #AE2626",
"z  c #AD3D25",
"x  c #C92A1A",
"c  c #D23A1A",
"v  c #8C431D",
"b  c #88491A",
"n  c #964919",
"m  c #8E5A1F",
"M  c #98541B",
"N  c #A84D17",
"B  c #AC521E",
"V  c #A6581A",
"C  c #B4591E",
"Z  c #B9661D",
"A  c #894726",
"S  c #954923",
"D  c #9A4A22",
"F  c #885325",
"G  c #9A5323",
"H  c #895539",
"J  c #905635",
"K  c #A34F21",
"L  c #A35225",
"P  c #AA5222",
"I  c #A35A2A",
"U  c #A85929",
"Y  c #B35522",
"T  c #B85826",
"R  c #936238",
"E  c #A86829",
"W  c #B66828",
"Q  c #B97A2C",
"!  c #AA6534",
"~  c #B36C35",
"^  c #AC7A32",
"/  c #BA7734",
"(  c #D94617",
")  c #ED4C0B",
"_  c #E55916",
"`  c #F15810",
"'  c #CA661A",
"]  c #D77519",
"[  c #EF611A",
"{  c #E57717",
"}  c #FB7D12",
"|  c #EC5D30",
" . c #C76928",
".. c #C77428",
"X. c #CC7C2B",
"o. c #D17B29",
"O. c #C37A31",
"+. c #F37133",
"@. c #87674D",
"#. c #946444",
"$. c #866957",
"%. c #8E7359",
"&. c #94735A",
"*. c #A8734C",
"=. c #8B786A",
"-. c #B6843A",
";. c #DE8F1F",
":. c #E18C1C",
">. c #F6881A",
",. c #EE941A",
"<. c #F69718",
"1. c #F6921D",
"2. c #F49B1B",
"3. c #F6A41C",
"4. c #FBAC1E",
"5. c #FDB31E",
"6. c #FEB91E",
"7. c #C58125",
"8. c #D6832D",
"9. c #DA862D",
"0. c #D68B2D",
"q. c #DA892D",
"w. c #CE902F",
"e. c #C38633",
"r. c #C78437",
"t. c #D38632",
"y. c #DB8731",
"u. c #D68933",
"i. c #DB8B32",
"p. c #DA9437",
"a. c #DA9933",
"s. c #E78B25",
"d. c #ED9726",
"f. c #E29B2C",
"g. c #F59D21",
"h. c #F69928",
"j. c #E08D34",
"k. c #E79936",
"l. c #ECA62D",
"z. c #F5A523",
"x. c #F9A324",
"c. c #FBAC24",
"v. c #F6A529",
"b. c #F2AA2B",
"n. c #FCB523",
"m. c #FEB924",
"M. c #F6B52B",
"N. c #FBB52B",
"B. c #FCB92C",
"V. c #EDAB36",
"C. c #F6AA35",
"Z. c #FCB533",
"A. c #FCBA33",
"S. c #F6BA38",
"D. c #FDC13B",
"F. c #B38D5C",
"G. c #9D866E",
"H. c #81807F",
"J. c #998677",
"K. c #AB8D65",
"L. c #BE9463",
"P. c #C89B56",
"I. c #E7B04F",
"U. c #F7B848",
"Y. c #FAC347",
"T. c #FACE5E",
"R. c #F7CD66",
"E. c #FCD877",
"W. c #828383",
"Q. c #8A8987",
"!. c #8C8D8D",
"~. c #9B8E84",
"^. c #9C9186",
"/. c #8F8F90",
"(. c #939393",
"). c #9B9793",
"_. c #9B9996",
"`. c #9C9B9A",
"'. c #A48F81",
"]. c #A99A8C",
"[. c #AA9F95",
"{. c #A29E9C",
"}. c #ADA093",
"|. c #A5A19E",
" X c #AEA39B",
".X c #B4A598",
"XX c #A4A5A5",
"oX c #ACADAD",
"OX c #B0AFAC",
"+X c #B5B1AD",
"@X c #B5B4B1",
"#X c #C6BDB7",
"$X c #C9C3BD",
"%X c #CAC8C5",
"&X c #D2CCC6",
"*X c #D2D1CF",
"=X c #D9D7D6",
"-X c #E1DCD6",
";X c #F5F4F4",
/* pixels */
". . X . . X . . . . . X 9 9 i -X-X=X@Xw w o 9 9 o 9 9 9 9 9 9 o ",
"X X X X X X X X X X X X o t  XF F 6 @.$X$Xp w 9 9 9 9 9 < o 9 9 ",
"w w w w w w w w q 0 q 0 r |.R t.8...W S A .X+X(.r w q 0 X X o o ",
"r r w w r w r w q 0 q 0 XX$.Q i.q.9.X.i...M #.}.XXw q 0 X X o o ",
"r r r r q q q q q 0 q q OXe Z i.i.0.o.0.q.y./ b J.(.q q q 0 X X ",
"w r w w q q 0 q q q q 0 u {.A M 3 O.u.8.q.q.i.o.G J.!.q q 0 X X ",
"q q q q q q q q q 0 q q (.J.e.' ' C n E t.t.q.q.o.! ).p q 0 X X ",
"q q q 0 0 0 q 0 q q 0 H.~.-.c.4.c.g.{ Z b ..t.u.u.t.R XXu 0 X X ",
"q 0 o o o 9 q q q 0 t ].^ c.<.b.p.a.p.l.:.V S r.8.....J  Xq o o ",
"0 0 9 o o 9 0 0 q t  XQ N.A.U.! - $ $ L C.N.Z G 8.9.q.W H XXq 9 ",
"X X X X X . X . q _.R 1.N.R.*.z +._ _ g ! b.c.Z I u.0.q.V =.(.o ",
"X X X X X X . . Q.G.] 5.Z.I.1 c ) ) [ c # a.m.z.V ! i.q.X.#.`.w ",
"0 0 0 0 q 0 X 0 .X/ z.n.6.b.S a x x x a k V.Y.n.d.V ~ u...M .XW.",
"0 q 0 q 0 0 o `.#.{ U.m.6.n.d.f + + + - s.B.D.N.A.7.b p.8...#.+X",
"q q q q q q _.&.f.c.d.<.n.n.n.k.e.e.r.a.5.Z.R.*.j k.G W i.o.d &X",
"q 0 q 0 q _.K.a.m.b.k.c.n.N.Y.n.6.m.m.n.n.S.F.k g A E n y.o.v #X",
"q q q q H.'.L.E.V.S k p.5.M.S.B.n.n.B.S.A.B./ $ a A Q G i.i./ 6 ",
"q q q q H.J.P.E.O.s s P m.M.E.R.,.2.Z.R.T.N.g.L 2 +.v.n / j. .> ",
"q 0 9 9 /.F.;.n.h.U S k.S.m.T.R.6.,.,.g.3.<.2.Z.U.>.x.b W o.W 2 ",
"0 0 9 Q.G.w.x.n.6.x.N.Z.l.c.N.n.n.n.4.>.} >.n.m.b.} } f D C Y > ",
". X 9 $X! r.S ~ B.g.c.4.>.>.>.0.B.2.d.h.C n ..m.b.M n f P Y T : ",
"X X !.G.~ D z s W 1.>.1.Z f d : w.V f f j : m c.f.; j P T C Y ; ",
"w r $X8 k ( ` c @ T n : j D D : ^ 3 b S B n m c.f.> Y Y Y Y A [.",
"w `.G.E $ x | l , & D B K N P : ^ b M S 2 < F 3.f.; 7 5 2 < '.p ",
"q XXK.f.P @ h , 1 D N K H 8 8 < -.6 7 /.=X#XG 1.s.@.-X*X*X*X!.9 ",
"i }./ C.S   O   & H * * (.%X=X[.V H =X`.r OX#.' w.%.@Xq q q 9 9 ",
"_.L.] T : > & y =.$X0 e XX9 r XXN H $Xq q r |.7 Q %.oX0 9 9 9 9 ",
"%XV ' k : @.^.oXOX+X^.`.u o q {.R G./.q q q !.J.Z %.oX0 9 9 9 o ",
"$X; = 5 ].{.!.9 0 0 (.W.o 9 o w |.Q.q q q q (.J.N %.XXo 9 o X X ",
"&X% % ).Q.w o 9 0 0 0 0 4 o o o q o 0 q 0 0 r |.H e XXo o o X X ",
"&X% ~.u o o X X X X o o o o X X X X X X 9 9 9 q OX&X`.X X X . . ",
";X-XH.X o o X X X X o o o o X . . X . . o o 9 o 0 q 9 . . X . X "
};
