/* XPM */
static char *result[] = {
/* columns rows colors chars-per-pixel */
"32 32 166 2 ",
"   c #26140D",
".  c #2C150E",
"X  c #2D180F",
"o  c #32160E",
"O  c #3A160C",
"+  c #341A0F",
"@  c #3C190E",
"#  c #321710",
"$  c #341A11",
"%  c #3C1C12",
"&  c #3F200F",
"*  c #332113",
"=  c #3D2310",
"-  c #42170B",
";  c #441A0D",
":  c #4B1B0D",
">  c #521D0D",
",  c #5B1E0E",
"<  c #421E12",
"1  c #4A1D11",
"2  c #521F10",
"3  c #591B10",
"4  c #4E210F",
"5  c #442212",
"6  c #4B2513",
"7  c #4A2A18",
"8  c #532413",
"9  c #5B2613",
"0  c #532A15",
"q  c #5B2B13",
"w  c #57271C",
"e  c #58271B",
"r  c #56291C",
"t  c #5B2B1D",
"y  c #493119",
"u  c #503015",
"i  c #58361A",
"p  c #602F14",
"a  c #642D1E",
"s  c #6B2D1C",
"d  c #722E1B",
"f  c #7C2E1A",
"g  c #67301D",
"h  c #6B311E",
"j  c #72341E",
"k  c #7C321D",
"l  c #77391F",
"z  c #78391F",
"x  c #642E21",
"c  c #692F20",
"v  c #653020",
"b  c #6C3121",
"n  c #6D3822",
"m  c #753423",
"M  c #7A3422",
"N  c #753920",
"B  c #7B3B21",
"V  c #5D451F",
"C  c #774224",
"Z  c #7C4323",
"A  c #862F18",
"S  c #84341E",
"D  c #8B341B",
"F  c #8E3B1E",
"G  c #91341B",
"H  c #913B1E",
"J  c #A72A0C",
"K  c #AF2D0B",
"L  c #B42E0C",
"P  c #BB2F0A",
"I  c #B5350D",
"U  c #BB330C",
"Y  c #BF3B0D",
"T  c #B63B13",
"R  c #BE3F10",
"E  c #813520",
"W  c #843B21",
"Q  c #8A3E21",
"!  c #933F21",
"~  c #C72E08",
"^  c #C4330B",
"/  c #CC340A",
"(  c #C63B0F",
")  c #CB3B0D",
"_  c #DF3506",
"`  c #DF3807",
"'  c #D33409",
"]  c #D93608",
"[  c #D33B0C",
"{  c #DA3B0B",
"}  c #C53410",
"|  c #C43E11",
" . c #CA3E11",
".. c #D23F10",
"X. c #E23F0A",
"o. c #8D411F",
"O. c #9C401E",
"+. c #844423",
"@. c #8B4222",
"#. c #834B27",
"$. c #8B4924",
"%. c #874C29",
"&. c #884928",
"*. c #914422",
"=. c #8C5328",
"-. c #D4420E",
";. c #DA430E",
":. c #DE480E",
">. c #C34212",
",. c #CC4411",
"<. c #C74A15",
"1. c #CC4C16",
"2. c #D24612",
"3. c #D94610",
"4. c #D34B13",
"5. c #DA4D13",
"6. c #D35216",
"7. c #E3430B",
"8. c #E44B0F",
"9. c #E35414",
"0. c #DB641D",
"q. c #DD6C1E",
"w. c #E36E1F",
"e. c #EA6E1D",
"r. c #F36C1A",
"t. c #F86E19",
"y. c #E3711E",
"u. c #EC731E",
"i. c #F3731C",
"p. c #FA761C",
"a. c #F37A1E",
"s. c #FC7B1D",
"d. c #DD6E20",
"f. c #DD7321",
"g. c #E37421",
"h. c #EC7620",
"j. c #E67A23",
"k. c #ED7B21",
"l. c #F37D21",
"z. c #F87A20",
"x. c #E78027",
"c. c #EC8426",
"v. c #F38122",
"b. c #FB8321",
"n. c #FC8A22",
"m. c #F29029",
"M. c #DAA23B",
"N. c #E8A337",
"B. c #EAA438",
"V. c #E4AC3D",
"C. c #E9A93A",
"Z. c #EBAD3C",
"A. c #F1A237",
"S. c #F6AE37",
"D. c #E4B43E",
"F. c #EBB33D",
"G. c #F4B43C",
"H. c #F4B93E",
"J. c #DCAD41",
"K. c #E5B341",
"L. c #E8B740",
"P. c #EABA42",
"I. c #F1BC40",
"U. c #E8C145",
"Y. c #F5C242",
"T. c #FBC341",
/* pixels */
"      X m l.;.d $ c m m m m $ s ' ` ' -   .   O ' p.;.: g $     ",
"    X t 8 u.[ : t < b m m m x 0 [ p.{ f @ x $ s / z.G.Z % r %   ",
"  X x < I s.-.O o t % s m m +.J.v.a.[ Q T W c < f 3.Y.=.a % t $ ",
"+ r % a F a.F.y X + t % k  .Z.Y.$.8 k M.H.L.$.s 1 | I.P.$.j 5 s ",
"s 5 a m M ,.Y.L.Y 1 5 j ( p.b.<.< e < ,.9.H.1.^ ^ ' :.l.j.g.) / ",
"/ M m M m S c.T.3.q.f.{ ` p.2.> a < U t.;.B 5 f / G ^ F W F ' _ ",
"] S m m m m 4.Z.q W *./ X.;.G x % a ' i.-.< w < d 5 k M W | ' ' ",
";.D m m h < ^ ,.s b m S ( C.&.m h > ^ O.q.j < t % x M | F.H.q d ",
"Y.2.E b % h d.4 + h m b 0 U.#.m M ^ ' D f.6 t % c m m 2.T.m.N $ ",
"Y.5.D m t 6 f.5 t m b < n D.y a m D / ;.u.k < x m m M h.I.@.<   ",
"4.r...k % b f.; X a % t : >.; $ b m S u.s.2.k m m m M h.4.< t # ",
": | i.Q t 1 Y : . < h 6 I e.[ U 6 m M ;.b.l.H M M W ( t.{ f m b ",
"t 9 g.F 6 U ' ^ ~ ( u.w.) ! w.l.V.4./ { S.I.6.' [ u.{ ' / ^ S c ",
"+ s [ [ u.k.Q D ] i.7.) 2 c W @.c.s.X.] ;.4.B.5.i.s.{ : O S m < ",
"a 1 ^ X.y.*.m M ;.S.,.3 t % b m @.g.u.9 s > Z W @.) ' : h  .h.w.",
"% a S q.p x m W k.Y.0 e < x m m b 9 ( - $ t m m m k k T M.k.s.9.",
"h m B g.l % x Q l.I.C % a m m b % s / : r = b m m m % h 7 @ R H.",
"M m m d.6 e < P X.3.E x < b b < r 5 / ^ ; a m m m m x < w   6 P.",
"m b ; I : o h [ ' ' S = t $ $ a + O / e.6 b m m m b % t %   + x.",
"b 5 d / ^ | Z.j., f ^ d % t X X O J [ C.#.m m m m < t 5 r   + g.",
"% d } ' [ G.T.1.a < / ) ; @ o @ K , k x.F.%.m b % t % t % o ; y.",
"/ } S M Q v.5.A % a ' A.1./ / ' ] S M -.n.P.+.@ t % t % O U / [ ",
"{ A < x W j.F % a > ) 9.N.k.u.i.a.g.( ' p.n.>.- @ + 5 L ~ ' A ; ",
"u.6 t < j ) S k ) ) r.) u & 6 l o.W S S ) ' ] ) ) w.y.7.;.o.7 h ",
"l.=   t : ^ G ( p.s.-.:     t % c m m m k - ^ p.p.;.{ h.I.P.K.2.",
"v.0 * 7 L ' ' 7.b.;.:       % t % b n m v $ ( 8.-.D k @.#.$.<.! ",
"b.D.D.D.2.D / i.H.4.O   t $ t < b b @ g % m F.D.6 a % a < c M M ",
";.$.i <.> % s 0 %.C.Z $ + t < a b < t < s ) F.V r < r % w $ d M ",
"~ > s ^ ; w = x B K.2.f O @ x b % t < d ( X.u.6     o o @ % ^ [ ",
"S U { w.@ $ x m m W ' ' / ) D B n 1 P [ i.a.8.0.5 X % I ..w.a.a.",
"$ A [ e.0 b < b M Q e.;.e.i.4.V.F.,.' D z q U ;.q.f.D.G.Z.$.8 B ",
". v S 2.V.j.B M ( i.v.q M Q ' 8.n.s.[ : X a k D ;.8.T.0.@.$ t % "
};
