/* XPM */
static char *result[] = {
/* columns rows colors chars-per-pixel */
"32 32 34 1 ",
"  c #2F2F2F",
". c gray19",
"X c #313131",
"o c #323232",
"O c gray20",
"+ c #343434",
"@ c #353535",
"# c gray21",
"$ c gray24",
"% c #3E3E3E",
"& c #3F3F3F",
"* c gray25",
"= c #414141",
"- c gray26",
"; c #434343",
": c #444444",
"> c #4B4B4B",
", c #4C4C4C",
"< c gray30",
"1 c #4E4E4E",
"2 c gray31",
"3 c #505050",
"4 c #515151",
"5 c gray32",
"6 c #535353",
"7 c gray35",
"8 c #5A5A5A",
"9 c gray36",
"0 c #5D5D5D",
"q c gray37",
"w c #5F5F5F",
"e c #606060",
"r c gray38",
"t c #626262",
/* pixels */
"        ...X&***=**********=***&",
"OOOOOOOOoooO&***==:;----;:==&%==",
"999900093221=**=1490qqqq094<Oo$&",
"eeeewwwq4332-=&*15qeeeeeeq51+O$&",
"rrre5444333331OO1345erre54332<OX",
"wwwq4333333342oo1334qwwq433342o.",
"55553333333342oo13335555333342o.",
"33222233332231OO,1333333332231OX",
"31-**-1443-===&%o+14433443-===&&",
"<>=&&=>121*&***&Xo13222221*&****",
"oo....OoXO*=********OooooO*=****",
"oooooX. O+=-;--;=-=*oXXX.o=-;---",
"11112>oo8qqqqqq03221*&&%%*9qqqqq",
"33333<O+9etrrtwq4332;-&&-:wtrtww",
"333344&&360ww06433332<--9wwee064",
"333321==240ww043333342=-0reew043",
"3333-=*=23444433333343--44444433",
"4421=**=2333333311112<&&12443333",
"21;=***=23333332-===-=OO*;123333",
"2<-****=1222111<&%&&&$..%-131111",
"XO%*****===*OXoX.o%&X. .%&*&oooo",
"+#=-----;:**OX.X+#==+OO+*==*Oo..",
"99wwqqqq09422,.o70wq990921111>=&",
"eerreewweq5342O@qtrreewq433331-&",
"35qeeq53443342*=wrrreq53333332-*",
"450qq05433332<;;0wwwq05433332<;=",
"224444223332;-&=455544223332;-&&",
"333222223332=**=<13333333321=*&&",
"3332===-2332***%O+24433331-*=&OX",
"2221-=%*<<31==%$ X,211111>=%&$OX",
"oooO%$OXo@&=&$OXXXXO*==*OO.XXo  ",
"...X&&X..X&=*%X. . .%&&%.......X"
};
