/* XPM */
static char *result[] = {
/* columns rows colors chars-per-pixel */
"32 32 212 2 ",
"   c #1D0215",
".  c #17001A",
"X  c #1C011A",
"o  c #160117",
"O  c #35080D",
"+  c #250415",
"@  c #2C0415",
"#  c #290F13",
"$  c #22031B",
"%  c #260C1C",
"&  c #290C1B",
"*  c #340613",
"=  c #350C16",
"-  c #3B0C16",
";  c #350C18",
":  c #2D1117",
">  c #2D131D",
",  c #30171E",
"<  c #3F1518",
"1  c #351F1C",
"2  c #230D23",
"3  c #290F21",
"4  c #251323",
"5  c #2B1424",
"6  c #251924",
"7  c #2D1927",
"8  c #26132D",
"9  c #2D162A",
"0  c #2E1A29",
"q  c #321424",
"w  c #3F1C20",
"e  c #321C2C",
"r  c #271731",
"t  c #281631",
"y  c #2A1A35",
"u  c #261B37",
"i  c #321D34",
"p  c #381D34",
"a  c #2F2121",
"s  c #2F2F2F",
"d  c #3E2823",
"f  c #35232C",
"g  c #3B232D",
"h  c #3E2C2D",
"j  c #3B2227",
"k  c #38302D",
"l  c #2C2134",
"z  c #2E2933",
"x  c #2C2238",
"c  c #352132",
"v  c #3A2633",
"b  c #3C2933",
"n  c #362239",
"m  c #39273C",
"M  c #342B3B",
"N  c #3A293A",
"B  c #372D31",
"V  c #323232",
"C  c #3E3E3E",
"Z  c #3C3633",
"A  c #45100F",
"S  c #431112",
"D  c #4B1915",
"F  c #571F18",
"G  c #571C14",
"H  c #52241D",
"J  c #5B251A",
"K  c #57281B",
"L  c #5D291E",
"P  c #642213",
"I  c #6A2514",
"U  c #64231B",
"Y  c #642B1A",
"T  c #6C2C1A",
"R  c #672B17",
"E  c #732A14",
"W  c #792B14",
"Q  c #64331E",
"!  c #673114",
"~  c #74341A",
"^  c #7D331C",
"/  c #7E391C",
"(  c #753B17",
")  c #441920",
"_  c #451C2D",
"`  c #412827",
"'  c #41272F",
"]  c #422A2D",
"[  c #49252A",
"{  c #532123",
"}  c #5E2D23",
"|  c #532A2B",
" . c #562725",
".. c #593027",
"X. c #53332C",
"o. c #5F3C2B",
"O. c #402730",
"+. c #442B33",
"@. c #412A3B",
"#. c #4F2C33",
"$. c #4C3434",
"%. c #42373F",
"&. c #4A3C3A",
"*. c #543A35",
"=. c #553639",
"-. c #593738",
";. c #523B3C",
":. c #523630",
">. c #632D24",
",. c #63352C",
"<. c #603B28",
"1. c #6A3B2D",
"2. c #6A3625",
"3. c #733825",
"4. c #613434",
"5. c #623B33",
"6. c #673E3D",
"7. c #44403E",
"8. c #5C423A",
"9. c #7D462E",
"0. c #614235",
"q. c #62443F",
"w. c #744232",
"e. c #724C3C",
"r. c #3D3245",
"t. c #443444",
"y. c #453C45",
"u. c #4A3C45",
"i. c #443D48",
"p. c #4C3F49",
"a. c #45374A",
"s. c #513E44",
"d. c #414141",
"f. c #4E4E4E",
"g. c #4D4448",
"h. c #534244",
"j. c #5D4344",
"k. c #544946",
"l. c #5D4942",
"z. c #534348",
"x. c #5C434A",
"c. c #514F4E",
"v. c #515151",
"b. c #5D5D5D",
"n. c #614246",
"m. c #6F4F40",
"M. c #634548",
"N. c #60484D",
"B. c #674B44",
"V. c #665147",
"C. c #6C544D",
"Z. c #795D4A",
"A. c #775B49",
"S. c #635753",
"D. c #635956",
"F. c #606060",
"G. c #8A3D0F",
"H. c #82351C",
"J. c #87391D",
"K. c #8B3D1C",
"L. c #8A3A18",
"P. c #933E1D",
"I. c #833922",
"U. c #8B3F23",
"Y. c #863C28",
"T. c #8E401C",
"R. c #95431E",
"E. c #9C4A1D",
"W. c #98471D",
"Q. c #A14E1D",
"!. c #A3511E",
"~. c #A85315",
"^. c #844123",
"/. c #8D4223",
"(. c #82432B",
"). c #8A452B",
"_. c #8B4A2A",
"`. c #944424",
"'. c #994523",
"]. c #934924",
"[. c #9B4D24",
"{. c #904B2B",
"}. c #9A4C2C",
"|. c #9C5326",
" X c #9B542C",
".X c #98582E",
"XX c #965424",
"oX c #9A5130",
"OX c #A24D24",
"+X c #A25324",
"@X c #AB5625",
"#X c #A65827",
"$X c #AC5B24",
"%X c #A4542A",
"&X c #A9562A",
"*X c #A55A2A",
"=X c #AC5B2B",
"-X c #B45C23",
";X c #B35C2B",
":X c #A55B30",
">X c #B56323",
",X c #BF6627",
"<X c #B5632D",
"1X c #B9632B",
"2X c #BE6B2C",
"3X c #B46731",
"4X c #C36B2B",
"5X c #C96E2C",
"6X c #C16929",
"7X c #CD732E",
"8X c #D07731",
"9X c #805D48",
/* pixels */
"s s V s s V s s V V V V C 7.d.C d.d.d.C C 7.d.d.d.C C d.d.C d.C ",
"V V V V V V V Z <...k V C C d.C d.d.d.d.&.T o.d.d.d.d.d.C C d.d.",
"b.b.b.b.b.b.b.V.].).h.f.7.d.d.d.v.v.F.F.S.I.{.C.F.b.v.f.V V C C ",
"F.F.b.F.b.b.S.9.-X{.g.f.d.d.C d.f.v.b.F.S.`.&X1.D.F.v.v.V V C C ",
"F.F.F.F.v.c.0.].4X_.g.v.v.f.V V f.v.v.v.S.].<X/ 8.v.v.v.v.f.V V ",
"F.F.F.b.v.l./ ;X5X_.k.v.v.v.V V f.v.v.v.D.'.6X'.3.k.c.v.v.v.V V ",
"v.v.g.7.;.3.%XE.4X_.u.d.d.i.z z d.y.y.d.8.].4XE.`.1.u.d.g.v.V V ",
"v.v.h B D J.}.G.6X/.=.g.z.z.s.8.h.h.j.j.-.`.2XT.'.T.| y.C 7.V V ",
"v.f.b @.J L.T ].5XR.6.C.Z.Z.Z.Z.Z.Z.9XA.w.W.7X[./ &X^ =.p.n C C ",
"f.f.] _ { >.T ].*X).p x x x x x l x q , ) `.3X).K.^.-.| x.r.7.r.",
"V V h j [ Y ).>. XY.q 4 5 & 3 3 3 & # # S /..X}  X! @.+.l.N d.d.",
"V V O.f ,.R.(.J +XK.* o $           $ 2 - K. XJ oXXX4.O.l.B d.d.",
"v.f.] ) P |.}.W +XU.@ . X X X X X o + X ; `.*XE ;X,X( H n.b b.b.",
"v.v.O.H K.$X<XQ.4X`.@ . X X X X X X X + ; `.7XOX2X7XQ.R B.b F.b.",
"v.v.g  .E.>X<XE.4XU.@ . X X X 2 X . $ X = `.7X$X>X,X|.L j.M v.v.",
"v.v.' L @X>X=XW.4X/.@ . X X X X $ . $ + = '.7X!.$X-X*XL j.M v.v.",
"v.v.g L @X~.[.R.4XU.@ X .   . X X . $ + = `.6XR.@X@X.XL h.M v.v.",
"v.v.+.Y &XE.H.R.1X>.+ X X $ $     X X X @ ~ 1XR.`.'.W.L z.M v.v.",
"v.f.' L %XU.I |.U.* . X + % % $ X +   . X S ].&XI H.R.L h.m v.v.",
"v.f.$.[ } T I.U.G + X 2 t t 8 t y r 2 X X + J +XU.P  .{ j.m f.f.",
"V V &.] #.( =XU + o $ 8 t t r 8 y y 8 @ $   @ / 1XQ y.] j.N V V ",
"V Z *.d } [./.-   % 9 e n n n i n i y 9 3 5 $ A +X*X..h l.M s V ",
"b.b.-.H E }.D + & e 9 e 0 m n m n n n n e 9 9 + P <XI.K n.M d.C ",
"b.b.5.Y J.~ @ + & 9 e v f g v v c p e i p 9 4 X * H.R.R V.V d.C ",
"v.v.1.>.P S + q v r.r.t.a.y.u.t.t.t.r.a.t.t.b > + D Y.2.C.B d.d.",
"v.v.0.e.,.X.X.*.:.%.a.h.h.h.s.h.p.s.s.p.p.s.;.*.:...1.m.l.d d.d.",
"v.f.j s.n.j.j.M.M.M.j.j.j.j.j.j.j.x.x.x.N.n.M.j.n.x.x.z.g 1 d.%.",
"v.v.0 i e 0 0 7 b b g 0 7 > > 5 7 q 9 0 0 9 0 0 e 7 y u > 1 C C ",
"f.f.f l 0 0 b 0 0 7 7 0 > : : : 7 7 7 7 0 0 7 0 0 6 6 6 a Z V V ",
"f.f.f.f.d.d.r.d.v.v.v.v.d.C C C s V f.c.f.f.v.f.f.f.d.C d.C V V ",
"V V V V C C Z V V V C d.C C V V V V V V d.d.d.C V V s V V V V s ",
"V V s s C C V V V V C d.C C V s s z s V C C C C V V V s s V s V "
};
