/* XPM */
static char *result[] = {
/* columns rows colors chars-per-pixel */
"32 32 181 2 ",
"   c #2E1316",
".  c #27131E",
"X  c #2E151C",
"o  c #2B181F",
"O  c #351B1E",
"+  c #2D1523",
"@  c #2D1825",
"#  c #2C1628",
"$  c #2C192B",
"%  c #321D22",
"&  c #331D2F",
"*  c #251C34",
"=  c #2D1B33",
"-  c #2A1D3A",
";  c #321E31",
":  c #2F2F2F",
">  c #3B2424",
",  c #3E2925",
"<  c #352429",
"1  c #382329",
"2  c #262035",
"3  c #27203A",
"4  c #362531",
"5  c #3F2736",
"6  c #332A37",
"7  c #332B3A",
"8  c #392939",
"9  c #323232",
"0  c #3E3E3E",
"q  c #421413",
"w  c #491E1F",
"e  c #511A14",
"r  c #591F16",
"t  c #4D2019",
"y  c #542511",
"u  c #5A241C",
"i  c #78300E",
"p  c #652717",
"a  c #682512",
"s  c #6C2A13",
"d  c #6D251C",
"f  c #642D1E",
"g  c #6B2B1C",
"h  c #722511",
"j  c #732915",
"k  c #722C1B",
"l  c #62311E",
"z  c #6D311C",
"x  c #733316",
"c  c #7B3515",
"v  c #7C341A",
"b  c #7D391A",
"n  c #4B2425",
"m  c #4B2B25",
"M  c #4D242A",
"N  c #462F29",
"B  c #482A2E",
"V  c #522523",
"C  c #542E24",
"Z  c #5D2C22",
"A  c #532B2C",
"S  c #40302B",
"D  c #52322C",
"F  c #5C312F",
"G  c #422A31",
"H  c #472933",
"J  c #532C36",
"K  c #48303A",
"L  c #5D3132",
"P  c #5A3A37",
"I  c #513138",
"U  c #543D3D",
"Y  c #593E3C",
"T  c #622C22",
"R  c #6B2F2B",
"E  c #722F22",
"W  c #663323",
"Q  c #6B3423",
"!  c #6B3A26",
"~  c #663329",
"^  c #6A3428",
"/  c #673929",
"(  c #693B2D",
")  c #783722",
"_  c #663D37",
"`  c #56433C",
"'  c #7E4221",
"]  c #64413D",
"[  c #6D413C",
"{  c #734335",
"}  c #714339",
"|  c #423143",
" . c #473F42",
".. c #4B3D43",
"X. c #553741",
"o. c #543E40",
"O. c #414141",
"+. c #4E4E4E",
"@. c #554245",
"#. c #5E4947",
"$. c #51494A",
"%. c #5F4949",
"&. c #515151",
"*. c #5E5E5E",
"=. c #624745",
"-. c #624947",
";. c #634649",
":. c #61484A",
">. c #715046",
",. c #7A564A",
"<. c #606060",
"1. c #833314",
"2. c #843817",
"3. c #84331B",
"4. c #8B371C",
"5. c #86391C",
"6. c #8B3C1C",
"7. c #923C1B",
"8. c #843C25",
"9. c #8B3C23",
"0. c #903921",
"q. c #924616",
"w. c #93451D",
"e. c #9C471C",
"r. c #974C1F",
"t. c #9C4C1D",
"y. c #9E511D",
"u. c #A24D1E",
"i. c #A6531C",
"p. c #AA531B",
"a. c #AD5A1D",
"s. c #B5631E",
"d. c #874023",
"f. c #8D4221",
"g. c #934422",
"h. c #994522",
"j. c #954B25",
"k. c #9D4C23",
"l. c #904228",
"z. c #975120",
"x. c #9A5325",
"c. c #95542A",
"v. c #9A552C",
"b. c #9E5B2B",
"n. c #814B30",
"m. c #895136",
"M. c #925634",
"N. c #A24D22",
"B. c #A24F29",
"V. c #A55223",
"C. c #A95423",
"Z. c #A65825",
"A. c #AC5A24",
"S. c #A5552C",
"D. c #AB532C",
"F. c #AC5B2A",
"G. c #B35D24",
"H. c #B25D2C",
"J. c #A45D35",
"K. c #B35E32",
"L. c #AC622E",
"P. c #B56225",
"I. c #BA6424",
"U. c #B66827",
"Y. c #BE6923",
"T. c #B4622D",
"R. c #BB652A",
"E. c #BD692A",
"W. c #B56133",
"Q. c #BC6A30",
"!. c #C16727",
"~. c #C36B25",
"^. c #CA6E27",
"/. c #C1662B",
"(. c #C36B2B",
"). c #CB6E2A",
"_. c #C57222",
"`. c #CD722B",
"'. c #D3732A",
"]. c #C76D32",
"[. c #C47130",
/* pixels */
": : : : : 9 : : 9 : 9 9 0 O.0 O.O.O.0 O.O.O.O.O.O.O.O.O.O.O.0 0 ",
"9 9 9 9 9 9 9 9 9 9 9 9 0 O.O.0 O.O.O.O.O.O.O.O.O.O.O.O.0 0 O.O.",
"*.*.*.*.*.*.*.*.&.+.+.+.O.O.O.O.&.&.*.*.*.*.*.*.<.*.&.+.9 9 0 0 ",
"<.<.*.<.*.*.<.*.&.&.&.+.O.O.0 O.+.&.*.<.<.<.<.<.<.*.&.+.9 9 0 0 ",
"<.<.<.<.&.&.&.&.+.&.&.&.&.&.9 9 +.&.&.&.<.<.<.<.&.&.&.&.&.+.9 9 ",
"<.<.<.$.% % 4 8 7 7 7 7 7 7 7 8 7 7 8 8 8 7 8 5 H 8 8 8 O.&.9 9 ",
"&.&.&.< | K P _ ] ] =._ =._ =._ _ ] } { } { { { [ =.` @.O.+.9 6 ",
"&.&.+., H Q g.k.9.5.h.6.v g.k.l.a 6.f.5.5.g.h.1.g.4.) L o.+.9 9 ",
"&.+.O.> M w.'.Y.a.A.E.G.t.Y.`.R.i H.C.C.C.I./.N.I.s.A.T ..O.0 0 ",
"+.+.O.> M c y.j.S.W.R.T.N./.'.E.1.H.C.F.K.C.H.z.x.g.v.f U O. .O.",
"9 9 : 1 G w B X.Q Q c b 3.w.a.U.1.R.t.6.5.x z p m I C V ` O.O.0 ",
"9 9 9 > M e V D u p v c k k.A.E.1.E.B.v v 6.8.r V J u Z Y O.O.O.",
"+.+.+.1 M d.J.g.g.w.C.V.6.P.~.R.1.(.!.t.k.B.F.9.F.b.k.g Y *.*.<.",
"&.&.+.> n q.~.p.N.a.!./.k.U.(.E.c [.(.C.F.C.G.i.~.Y.G.f o.<.<.*.",
"&.&.&.> n w.`.P.A.s.'.(.N.U.v.b.1.L.c.P.I.P.R.y.(.].K.T ..*.&.&.",
"&.&.+.> n w.'.^.R.P.).).N.P.m.M.7.J.n.L.Y.I.(.u.~._.R.T ..*.&.&.",
"&.&.&., M w.'.).R.A.R.E.u.P.j.j.7.D.j.T.Y.~.E.k.G.a.T.W  .&.+.&.",
"&.&.+., A w.`.s.H.u.i.U.u.P.H.H.4./.E.G.E.`.E.u.A.y.W.l U +.&.&.",
"+.+.O., M 4.(.G.A.N.i.E.k.a.p.H.7.).`.G.G.(.(.t.A.i.K.l @.&.+.&.",
"+.+.O.N F 1.T.u.C.A.(.~.i.A.C.H.0.^.^.G.H.I.(.i.R.a.V.T U +.+.+.",
"9 9 O.B L E ! ! x.A.R.E.k.A.A.P.w.(.I.C.N.A.T.f.' ( ) f U 9 9 9 ",
"9 9 O.S D q G X.t y s s d 6.N.Q.7.G.h.3.j j j e w X.M V ` : 9 : ",
"*.*.<.N F p l ~ E 5.k.k.2.A.R.E.6.C.C.6.g.j.j.g ) W Q Z U +.O.0 ",
"<.<.<.C R 7.P.N.k.k.R.T.g.s.`.~.4.N.C.B.k.C.H.e.E.Z.N.z ` +.O.O.",
"+.&.<.C / x Z.r.9.2.N.k.3.B.D.N.h g.g.6.6.k.j.2.S.g.8.^ -.&.O.O.",
"&.&.<.D ,.{ ! Q W W Q z W Q Q Q T Q ^ ^ Q ^ Q ^ E ^ ( >.` +.O.O.",
"&.+.&.O U -.] =.=.#.=.#.=.=.=.=.:.-.=.=.#.#.%.:.:.;.:.@.< O.O.O.",
"&.&.&.@ 2 $ @ $ # @ # # + + + + + + = = = - 2 2 3 3 3 * . O.0 0 ",
"&.&.&.6 ; & 4 ; $ $ + @             X X o + + . @ $ = $ % 0 9 9 ",
"+.+.+.+.O.O.O.K +.+.+.+.` 0 0 0 6 9 +.+.+.+.+.+.+.+.0 0 0 0 9 9 ",
"9 9 9 9 0 0 9 9 9 9 O.O.0 9 9 9 9 9 9 9 O.O.O.O.9 9 9 9 9 9 : : ",
"9 9 : 9 0 0 9 9 9 9 0 O.O.0 9 : : 9 : 9 0 0 0 O.: : : : 9 : 9 9 "
};
