/* XPM */
static char *result[] = {
/* columns rows colors chars-per-pixel */
"32 32 57 1 ",
"  c #34271E",
". c #33291F",
"X c #3C2F1F",
"o c #2F2923",
"O c #342625",
"+ c #352B24",
"@ c #3A2D25",
"# c #34272D",
"$ c #352A2A",
"% c #3B2D29",
"& c #373127",
"* c #3B3026",
"= c #3C312A",
"- c #40301F",
"; c #433326",
": c #43352C",
"> c #44382D",
", c #433631",
"< c #453830",
"1 c #5D4F4B",
"2 c #5E5146",
"3 c #5D514B",
"4 c #614F4A",
"5 c #645446",
"6 c #655B45",
"7 c #695946",
"8 c #63554B",
"9 c #69574A",
"0 c #66594C",
"q c #6B5B4D",
"w c #705F4E",
"e c #645751",
"r c #685752",
"t c #665951",
"y c #6C5C51",
"u c #715F50",
"i c #6E614D",
"p c #71614C",
"a c #6F6251",
"s c #726253",
"d c #8F8472",
"f c #928474",
"g c #978B73",
"h c #9B8C75",
"j c #938379",
"k c #978A7B",
"l c #9A8B7A",
"z c #9C9072",
"x c #9E937D",
"c c #A28D75",
"v c #A38D79",
"b c #A19276",
"n c #A2927D",
"m c #A8917B",
"M c #9E9281",
"N c #A48F80",
"B c #A49281",
/* pixels */
"MBnnBNBBBnnBBBmcmBBnnnmmBBnnnnh9",
"nvzhvvvvhhzzbvcbblhncvvcxlvvzz6%",
"Mhs000r90006qq9000q09900t09860%$",
"xc0%=%%%****@@@@%=@@%%;@%%%;;2$#",
"nce%188838383333811re4883888f0%#",
"nh0*8yy00i08=+@%@@,jyyqqqyeyl0$#",
"xh0@7hchxd,1@@$@$@8lwhcznd:0k0$#",
"nc0X7bmbh0%3%18888whwzbbh7@tl0%#",
"Bh0*7vvp9*@3*8t008qhphbp7;%9l0@#",
"xz0@9Blr8$+1*8t009ylpxlq4%%0l8$#",
"xz0@rj0@+o@3%3t889qgpj0=++@0l6@#",
"nh9;3<@*++&3<tyyyywhq:=$@+%9h0@$",
"Bh0%88832t8qfkllllhgq28333eil0@$",
"nz0*8%@ >dqqipspspww68%$$,jsg0@$",
"xz0=3++@8killlhlgkhd:3%$=tkpgq+#",
"Mz0&1%88igallsrqyqy8=3%3etgpg0@#",
"Nc0&1%89qhujq8833e3$=3%80thigq@#",
"Nc0&3,eqplt:@=&%===+=3<0qshig6$#",
"Bvr%0fhhhky88133333020fhhlksg6@#",
"Blr%8ppppqr8%@%+&+<fi7pppueqhq+$",
"nvt@qghhnf:1@@++o&8lqhhcvf:0z0@$",
"Bv8@qvnnl0%1%88883qhwcnvlq@0l0+$",
"nz0*6lxi0@@3%ett00qhphnw9-+rh0+$",
"nh8*5xl02$+3&800007hpvl04%@0kq+O",
"nv8;8f0@$$$3*80000qkaf0%@O@rlq+$",
"ncr-8:-%#%&3>0yrqqsl0:@+##%qk0+O",
"nc0@9488885qfhhlhllgq888885ql0@+",
"Bzq@9yyuqyuyssuuuuppqyuuqp7sk0+O",
"nh6:jlkllkgkggggllgglllllllkkt&o",
"Bg028t0t006666i600qq0600r0t0t3&o",
"k0%%$+++@+#$++@$#$+.&.+&+$+@++$o",
"6XOOO+++ +$O.+O+$$o.o+ooo+ ..+o$"
};
