/* XPM */
static char *result[] = {
/* columns rows colors chars-per-pixel */
"32 32 81 1 ",
"  c #14100F",
". c #151312",
"X c #171816",
"o c #1B171A",
"O c #1C1A1C",
"+ c #231E1D",
"@ c #1E1B21",
"# c #231D24",
"$ c #251F28",
"% c #172024",
"& c #1F2324",
"* c #252224",
"= c #292422",
"- c #2C2825",
"; c #25242B",
": c #2B242D",
"> c #27292A",
", c #2E2E2E",
"< c #322C29",
"1 c #382D29",
"2 c #34312E",
"3 c #39312E",
"4 c #2C2532",
"5 c #252B33",
"6 c #2A2A33",
"7 c #262D39",
"8 c #312434",
"9 c #322835",
"0 c #352C3C",
"q c #392B3C",
"w c #25303E",
"e c #2B343B",
"r c #2A383C",
"t c #323232",
"y c #323A3F",
"u c #3F3E3E",
"i c #453A36",
"p c #483F3A",
"a c #42403E",
"s c #3B2E42",
"d c #2A3A4A",
"f c #3E3146",
"g c #333B41",
"h c #3E324A",
"j c #42344B",
"k c #46394F",
"l c #453652",
"z c #483754",
"x c #473854",
"c c #4A3955",
"v c #4D3C5B",
"b c #513D5D",
"n c #523F62",
"m c #374247",
"M c #3C444B",
"N c #414141",
"B c #4E4E4E",
"V c #554F49",
"C c #5A534F",
"Z c #54405E",
"A c #505050",
"S c #5E5E5E",
"D c #6B685F",
"F c #554265",
"G c #56456A",
"H c #5C466C",
"J c #5D496E",
"K c #5F4A71",
"L c #624A6C",
"P c #614C73",
"I c #634D79",
"U c #6D547B",
"Y c #606060",
"T c #706961",
"R c #787368",
"E c #888177",
"W c #90897D",
"Q c #A09587",
"! c #A3978A",
"~ c #B7AC9C",
"^ c #C2B6A5",
/* pixels */
",t,t,t,,2,,tud745wamuuaNNNNNuNNu",
"ttttttttt9tefZLUULcq7jNNNNNNuuam",
"SSSSSSYSABqHFJPPLPPPc4YYYSBBt2aa",
"YSSYSYSSAsLI0jPPKPPPGv4YYYABttuu",
"YYYYAAAAsnHPv:jGKKKKbvv4AAABABtt",
"YYYSAAAqbvnKPZslJKKFcvvv4AAAAAt,",
"AAAAAA4vvvvFKIIKKPJbvvvvz;AAAAtt",
"AAABB;lbvvclFHKKKKFvcvvvvs5BABtt",
"ABNum9zvvvvscnnGGnvjhvvvxx4gNNja",
"BBNu;hcvvvv0svvvvvz4lvvvvz9eNNaa",
"tt9t4zvvvvvf4vvvvvs4bvvvvvj5maNN",
"ttt24vvvvvvz#lvvvv;svvvvvvl>aNNa",
"BBBB6vvvvvvv44cbvl#jvvvvvvx:DYSS",
"AAAA6vbvvvccl#4cnl@lvvcvbvz5YYSY",
"AAAA6zskvvxcvl$#s8#lvvvvf0f5YSAA",
"BAAB5jj#fZlxvvl0$$hvvbx:4z0yYYAA",
"AAAAj4vs;cvvvvvvvvbvvx$9vx;AAAAA",
"AABAae:l40cvvvvvvvcvc:qvj>mAAAAA",
"ABNNaNr>$+6jlzvvvvvvj0h95MAVAAAA",
"BBaNuNNNg<-*:6qfsss8:55rpgBABBBB",
"ttmaNNNNNg&*t=++$4:#X5,,upmu6ttt",
"ttNNNNNNN9*>*3i+$4sl#@ttmNaatttt",
"SSDYSSSSSsfO+-2*so:;*fSSVBBBBBNp",
"SYYYYYSY>9;0h-O09.OOo0:SAABAAANg",
"BAYYYSBBQT=kZZ@6+#06.aWDAAAAABNj",
"AASYSSAN~~tzfGc&O9,-1a^RAAAABBaa",
"ABAAAAAMBB4HcfJZ0# =i1NMAAABNNNN",
"AAABABAAMg;FIZFIF00-=-5ABABBauNu",
"AAAANNNNVAg;jvFJFvk#&AAABBNNMu2t",
"BABBNNuNBAAo2C5u<eV>&BBBBBNuautt",
"ttttuuttttN>~E%,t,!W>NNutt,tttt,",
"t,t,uuttt3gNt&tt,,>tuuuuttt,t,tt"
};
