/* XPM */
static char *result[] = {
/* columns rows colors chars-per-pixel */
"32 32 112 2 ",
"   c #0A0607",
".  c #161516",
"X  c #191416",
"o  c #17151A",
"O  c #1C1A1B",
"+  c #211D1E",
"@  c #1E1C24",
"#  c #231C24",
"$  c #251F29",
"%  c #281F29",
"&  c #1E2224",
"*  c #1F222A",
"=  c #1F2631",
"-  c #252324",
";  c #2A2523",
":  c #23232B",
">  c #2B232D",
",  c #23282B",
"<  c #2F2E2E",
"1  c #312F2D",
"2  c #36312D",
"3  c #242631",
"4  c #2D2532",
"5  c #232B34",
"6  c #2C2935",
"7  c #302533",
"8  c #322B34",
"9  c #312638",
"0  c #352A3B",
"q  c #382C3F",
"w  c #2A3034",
"e  c #323232",
"r  c #3A3633",
"t  c #3B3937",
"y  c #31383C",
"u  c #3F3E3E",
"i  c #413D38",
"p  c #46413B",
"a  c #4A463F",
"s  c #372C40",
"d  c #3A2D43",
"f  c #3E2F49",
"g  c #3C3144",
"h  c #3E3349",
"j  c #413447",
"k  c #42344C",
"l  c #453651",
"z  c #473952",
"x  c #4A3A56",
"c  c #493758",
"v  c #4C3C5B",
"b  c #503D5E",
"n  c #4F3D60",
"m  c #503D60",
"M  c #394D59",
"N  c #414141",
"B  c #4B4641",
"V  c #4D4A44",
"C  c #424648",
"Z  c #444A4D",
"A  c #4E4E4E",
"S  c #5C554B",
"D  c #52425E",
"F  c #515150",
"G  c #5F5850",
"H  c #55595B",
"J  c #5E5E5E",
"K  c #625B53",
"L  c #665F58",
"P  c #66605B",
"I  c #6C665D",
"U  c #534263",
"Y  c #5A4566",
"T  c #564569",
"R  c #5A466A",
"E  c #5D4A6E",
"W  c #5F4A71",
"Q  c #644C6F",
"!  c #624C74",
"~  c #674F7A",
"^  c #665077",
"/  c #67507B",
"(  c #6A527B",
")  c #606061",
"_  c #6E6B61",
"`  c #736C64",
"'  c #83796E",
"]  c #857D73",
"[  c #8B8176",
"{  c #91877A",
"}  c #705882",
"|  c #948C80",
" . c #9C9489",
".. c #A2968A",
"X. c #B1A595",
"o. c #B0A598",
"O. c #BAAF9D",
"+. c #C4B6A9",
"@. c #C6BCAA",
"#. c #CBBDAD",
"$. c #CCBFB0",
"%. c #CCC0AF",
"&. c #D0C1AF",
"*. c #CEC4B3",
"=. c #D2C7B6",
"-. c #D9CAB6",
";. c #D5CBBA",
":. c #DBCDBA",
">. c #E5D8C0",
",. c #EADAC6",
"<. c #ECDDC9",
"1. c #F2E2CD",
/* pixels */
"< < < < w 2 < 6 e e y w p M 3 3 5 i N N Z N M i N M j N M p u u ",
"e e e e e e e e e e = 0 z Q ( } ( Y k 6 N N a i B i N N i i N u ",
"J J J J J J P J A 9 U ! Q Q ~ ~ ~ ~ ( ( x 4 J ) J H F A e e u u ",
") ) J ) ) ) J * h T W W Q Q E E E W W W ~ ~ j 5 L J F F e e u u ",
") ) ) ) F F : z v n W W W W W W ! E W ! W W / D , M A F F A e e ",
") ) ) ) F * j v z v T W W W W W W ! W E W R Y ~ U * F F F F e w ",
"F F F H A 4 v k s v v R W W W W E U m n n v 4 q T k A F F A e 2 ",
"A F A A : z v z 9 v v v U U U n v c v m v m c 0 d U : A F A e e ",
"F A N N 4 b x 0 > v v v z v v v v v l g 0 s x b x v 6 N N p M t ",
"A Z N : v v 7 0 % k v v c z v v v 0 > o - r # s x v d N p h u p ",
"e e % c v h # k : 7 x v l c v v z k > i  .@.{ p $ x j N i M p u ",
"e e 3 7 4 @ # v > : q v v v c v m 6 e o.| I J ] K # 0 N p N N N ",
"A A A A A A % v 0 > $ k v v v v f ; | $...[ V . ` I X J J J J J ",
"A A F A A A : v k > g % x v z k # ' ;.<.=.V t - + S ) ) P ) J ) ",
"F A F F F F : k x 4 h d % 0 s 9 i +.,.1.[ 2 F F t . J ) ) J F F ",
"F F F F A A N j v j 4 v h g v @ ] ..<.1.{ < G A e ) ) ) ) J F F ",
"F F F F N N M > v b 0 g b m j 2  .S <.<.:.B 1 i K F F F F F F F ",
"F F A A N t p p : l v f c b s + _ r %.&.1.:.O.:.-.F F F F F F F ",
"A A N N N p u N A : 6 j z b c 4 - X 1 ` :.<.1.<.1.P A A F A F F ",
"A A p i i M p M A A A A > > s g j > X   ` 1.:.>.,.] A F A A A A ",
"e e h N N j N p N p N M e # > X o # $ o p *.[ =.' P N u e e e e ",
"e t M p N N N N N C i i # z 7 4 k + 0 q - i 2 C , N N u e e e e ",
"J J G J J J J J J J A A 5 + O g W : # % % > J H F A A A A A N u ",
"J ) ) P J ) ) ) ) L F A , 8 # d T 0 d m 9 O ) J F F F A A A N u ",
"F F J ) ) J F F F F F F : k # 0 z 8 s ~ U & F F F A F F A A N N ",
"F F J J J J F F A F F & 8 h + 8 1 O g m T 4 F F F F F F A A B N ",
"F A F F F F F A F F F . j 9 ` *.#.I : j E 4 A A F F F A M N g N ",
"F F F F F A A F F A F . x k B @.=.a 0 Q ^ 0 F F F A A A p N u N ",
"F F F A M u p M A F F - - 6 o O O # z x z : A A A A N N p u e 2 ",
"A F A A p p t i A A F ; - N u O 2 O - p X A A A A A N u t u e w ",
"e e e e u u 2 2 e e i i u u e r X.| ; ` r N i M e e w e 2 e 2 < ",
"2 e w e u u 2 w < 8 i M u u e w & w * 2 u p t u 2 e 2 e w w 2 w "
};
